<?xml version="1.0" encoding="utf-8"?>
<!-- Generator: Adobe Illustrator 25.0.0, SVG Export Plug-In . SVG Version: 6.00 Build 0)  -->
<svg version="1.1" id="Layer_1" xmlns="http://www.w3.org/2000/svg" xmlns:xlink="http://www.w3.org/1999/xlink" x="0px" y="0px"
	 viewBox="0 0 72 72" style="enable-background:new 0 0 72 72;" xml:space="preserve">
<style type="text/css">
	.st0{fill:#32353F;}
</style>
<g>
	<path class="st0" d="M26.07,7.56c10.17,0,18.44,8.27,18.44,18.44c0,3.38-0.95,6.71-2.73,9.62l-0.83,1.34l1.12,1.12l21.68,21.68
		c0.76,0.76,0.76,2,0,2.77l-1.14,1.14c-0.37,0.37-0.86,0.57-1.38,0.57c-0.53,0-1.02-0.2-1.38-0.57L38.15,41.99l-1.12-1.12
		l-1.34,0.83c-2.91,1.79-6.24,2.73-9.62,2.73C15.9,44.44,7.63,36.17,7.63,26C7.63,15.83,15.9,7.56,26.07,7.56 M26.07,5.56
		C14.78,5.56,5.63,14.71,5.63,26s9.15,20.44,20.44,20.44c3.92,0,7.56-1.12,10.67-3.03l21.68,21.68c0.77,0.77,1.78,1.15,2.8,1.15
		s2.03-0.38,2.8-1.15l1.14-1.14c1.54-1.54,1.54-4.06,0-5.59L43.48,36.67c1.91-3.11,3.03-6.75,3.03-10.67
		C46.51,14.71,37.36,5.56,26.07,5.56L26.07,5.56z"/>
</g>
</svg>
