<svg width="22" height="20" viewBox="0 0 22 20" fill="none" xmlns="http://www.w3.org/2000/svg">
<path d="M15.7233 12.5786H14.7296L14.3774 12.2699C15.6101 10.9663 16.3522 9.27387 16.3522 7.43282C16.3522 3.32762 12.6918 0 8.1761 0C3.66038 0 0 3.32762 0 7.43282C0 11.538 3.66038 14.8656 8.1761 14.8656C10.2013 14.8656 12.0629 14.191 13.4969 13.0703L13.8365 13.3905V14.2939L20.1258 20L22 18.2962L15.7233 12.5786ZM8.1761 12.5786C5.04402 12.5786 2.51572 10.2802 2.51572 7.43282C2.51572 4.58548 5.04402 2.28702 8.1761 2.28702C11.3082 2.28702 13.8365 4.58548 13.8365 7.43282C13.8365 10.2802 11.3082 12.5786 8.1761 12.5786Z" fill="black" fill-opacity="0.5"/>
</svg>
