<?xml version="1.0" encoding="utf-8"?>
<!-- Generator: Adobe Illustrator 25.0.0, SVG Export Plug-In . SVG Version: 6.00 Build 0)  -->
<svg version="1.1" id="Layer_1" xmlns="http://www.w3.org/2000/svg" xmlns:xlink="http://www.w3.org/1999/xlink" x="0px" y="0px"
	 viewBox="0 0 288 288" style="enable-background:new 0 0 288 288;" xml:space="preserve">
<style type="text/css">
	.st0{fill:#32353F;stroke:#FFFFFF;stroke-miterlimit:10;}
	.st1{fill:#32353F;}
	.st2{fill:none;stroke:#32353F;stroke-width:7;stroke-miterlimit:10;}
</style>
<path class="st0" d="M200.65,122.02c14.19,0,5.77-40.24-58.61-40.24c-63.71,0-71.88,40.24-59.23,40.24S186.47,122.02,200.65,122.02z
	"/>
<path class="st1" d="M192.34,187.02H92.04c-7.48,0-13.59-6.12-13.59-13.59v0c0-2.25,1.84-4.09,4.09-4.09h119.31
	c2.25,0,4.09,1.84,4.09,4.09v0C205.94,180.9,199.82,187.02,192.34,187.02z"/>
<path class="st1" d="M82.27,149.23h119.84c2.1,0,3.83,1.72,3.83,3.83v8.07c0,2.1-1.72,3.83-3.83,3.83H82.27
	c-2.1,0-3.83-1.72-3.83-3.83v-8.07C78.45,150.96,80.17,149.23,82.27,149.23z"/>
<path class="st2" d="M78.45,140.48c18.51,0,11.46-12.16,23.83-12.16c10.21,0,8.85,14.68,19.91,14.68c10.89,0,8.96-14.54,19.97-14.54
	c12.09,0,8.12,14.54,21.05,14.54s8.7-14.68,19.42-14.68c12.2,0,6.12,12.16,23.3,12.16"/>
</svg>
