<?xml version="1.0" encoding="utf-8"?>
<!-- Generator: Adobe Illustrator 25.0.0, SVG Export Plug-In . SVG Version: 6.00 Build 0)  -->
<svg version="1.1" id="Layer_1" xmlns="http://www.w3.org/2000/svg" xmlns:xlink="http://www.w3.org/1999/xlink" x="0px" y="0px"
	 viewBox="0 0 288 288" style="enable-background:new 0 0 288 288;" xml:space="preserve">
<style type="text/css">
	.st0{fill:#32353F;}
</style>
<path class="st0" d="M215.97,129.21h-23.91c-1.86-5.3-6.89-9.11-12.83-9.11c-4.23,0-8.01,1.93-10.51,4.96
	c-2.5-3.03-6.28-4.96-10.51-4.96c-5.94,0-10.97,3.81-12.83,9.11h-13.15v-26.74h82.52v-4h-82.52v-8.69l82.41-9.76l-0.47-3.97
	l-99.63,11.8l0.47,3.97l4.73-0.56v7.21h-5.32v4h5.32v26.74h-2.74c-1.86-5.3-6.89-9.11-12.83-9.11s-10.97,3.81-12.83,9.11h-19.3
	c0,23.29,17.51,43.31,42.62,52.24v8.58h58.69v-8.58C198.46,172.52,215.97,152.5,215.97,129.21z M123.74,90.79l4.49-0.53v8.21h-4.49
	V90.79z M123.74,102.47h4.49v26.74h-4.49V102.47z"/>
</svg>
