<?xml version="1.0" encoding="utf-8"?>
<!-- Generator: Adobe Illustrator 25.0.0, SVG Export Plug-In . SVG Version: 6.00 Build 0)  -->
<svg version="1.1" id="Layer_1" xmlns="http://www.w3.org/2000/svg" xmlns:xlink="http://www.w3.org/1999/xlink" x="0px" y="0px"
	 viewBox="0 0 288 288" style="enable-background:new 0 0 288 288;" xml:space="preserve">
<style type="text/css">
	.st0{fill:#32353F;stroke:#FFFFFF;stroke-miterlimit:10;}
</style>
<path class="st0" d="M215.29,112.57c-7.02-2.89-16.8-3.6-27.99-2.54c2.51,1.48,5.06,3.29,7.35,5.46
	c-7.75-1.96-13.92-3.17-18.44-3.92c-4.54,0.81-9.23,1.86-13.99,3.13c3.06,1.65,6.27,3.77,9.11,6.45c-7.54-1.9-13.57-3.1-18.05-3.86
	c-3.46,1.09-6.93,2.28-10.39,3.57c3.49,1.74,7.3,4.1,10.6,7.22c-7.96-2.01-14.26-3.24-18.81-3.98c-3.83,1.6-7.62,3.31-11.33,5.12
	c3.69,1.77,7.83,4.24,11.37,7.6c-7.79-1.97-14-3.19-18.52-3.94c-2.83,1.52-5.6,3.1-8.28,4.73c4.08,1.79,8.98,4.5,13.1,8.39
	c-8.53-2.15-15.13-3.4-19.74-4.13c-3.89,2.64-7.54,5.38-10.89,8.21c3.76,1.78,8.01,4.29,11.65,7.73c-6.59-1.66-12.03-2.79-16.3-3.55
	c-5.56,5.33-9.99,10.91-12.86,16.61c-6.34,22.82,25.19,8.69,73.71-13.94C195.77,135.15,236.42,124.4,215.29,112.57z"/>
</svg>
