<?xml version="1.0" encoding="utf-8"?>
<!-- Generator: Adobe Illustrator 25.0.0, SVG Export Plug-In . SVG Version: 6.00 Build 0)  -->
<svg version="1.1" id="Layer_1" xmlns="http://www.w3.org/2000/svg" xmlns:xlink="http://www.w3.org/1999/xlink" x="0px" y="0px"
	 viewBox="0 0 288 288" style="enable-background:new 0 0 288 288;" xml:space="preserve">
<style type="text/css">
	.st0{fill:#32353F;}
</style>
<path class="st0" d="M237.19,88.33c-4.47-2.84-12.61-2.81-41.62,16.56c-4.83,3.23-9.56,6.54-13.78,9.57h-75.74
	c-4.21-3.03-8.94-6.35-13.78-9.57c-29.02-19.36-37.15-19.4-41.62-16.56c-1.8,1.14-4.59,4.04-3.1,10.55
	c1.95,8.49,9.01,15.78,21.03,21.78v12.09c0,18.05,11.24,32.81,25,32.86v7.93h100.82v-7.93c13.76-0.05,25-14.82,25-32.86v-12.16
	c11.93-5.98,18.94-13.25,20.88-21.7C241.78,92.37,238.99,89.48,237.19,88.33z M76.53,114.46c-10.25-4.42-18.5-10.22-20.19-17.6
	c-0.08-0.33-0.13-0.61-0.16-0.84c2.48,0.23,10.43,2.42,32.48,17.27c0.58,0.39,1.14,0.78,1.71,1.17H76.53z M231.52,96.87
	c-1.69,7.37-9.94,13.18-20.19,17.6h-13.85c0.57-0.39,1.14-0.78,1.71-1.17c22.05-14.85,30-17.05,32.48-17.27
	C231.64,96.26,231.59,96.53,231.52,96.87z M153.54,85.77 M131.33,54.46 M173.06,85.77 M127.52,101.67h-9
	c0-8.26-3.42-14.45-7.04-20.99c-3.92-7.09-8.37-15.13-8.37-26.22h9c0,8.77,3.52,15.13,7.24,21.86
	C123.37,83.58,127.52,91.08,127.52,101.67z M151.54,101.67h-9c0-8.26-3.42-14.45-7.04-20.99c-3.92-7.09-8.37-15.13-8.37-26.22h9
	c0,8.77,3.52,15.13,7.24,21.86C147.39,83.58,151.54,91.08,151.54,101.67z M175.56,101.67h-9c0-8.26-3.42-14.45-7.04-20.99
	c-3.92-7.09-8.37-15.13-8.37-26.22h9c0,8.77,3.52,15.13,7.24,21.86C171.41,83.58,175.56,91.08,175.56,101.67z"/>
</svg>
