<?xml version="1.0" encoding="utf-8"?>
<!-- Generator: Adobe Illustrator 25.0.0, SVG Export Plug-In . SVG Version: 6.00 Build 0)  -->
<svg version="1.1" id="Layer_1" xmlns="http://www.w3.org/2000/svg" xmlns:xlink="http://www.w3.org/1999/xlink" x="0px" y="0px"
	 viewBox="0 0 288 288" style="enable-background:new 0 0 288 288;" xml:space="preserve">
<style type="text/css">
	.st0{fill:#32353F;}
</style>
<path class="st0" d="M206.41,167.23c-2.56-4.68-7.52-7.86-13.24-7.86c-5.11,0-9.61,2.55-12.34,6.43c-2.73-3.89-7.23-6.43-12.34-6.43
	c-5.71,0-10.68,3.18-13.24,7.86h-32.97v-34.67h9.19c7.23,0,13.24-5.41,14.22-12.38h82.6v-4h-82.6c-0.98-6.97-6.99-12.38-14.22-12.38
	h-29.62v3.11h6.75v3.42h-6.75v2.87h6.75v3.42h-6.75v2.87h6.75v3.42h-6.75v2.87h6.75v3.42h-6.75v2.07c0,0.43-0.02,0.85-0.07,1.27
	h6.82v28.08c-1.85-0.81-3.89-1.27-6.04-1.27c-5.71,0-10.68,3.18-13.24,7.86h-26.8l0.01,2.51c0.06,12.75,10.47,23.11,23.22,23.11
	h126.21c12.74,0,23.16-10.37,23.22-23.11l0.01-2.51H206.41z M126.81,129.22h-4.52v-3.42h4.52V129.22z M126.81,122.93h-4.52v-3.42
	h4.52V122.93z M126.81,116.64h-4.52v-3.42h4.52V116.64z M126.81,110.35h-4.52v-3.42h4.52V110.35z M112.61,106.92h5.68v3.42h-5.68
	V106.92z M112.61,113.22h5.68v3.42h-5.68V113.22z M112.61,119.51h5.68v3.42h-5.68V119.51z M112.61,125.8h5.68v3.42h-5.68V125.8z
	 M112.61,132.57h5.68v34.67h-2.49c-0.83-1.52-1.92-2.86-3.2-4.01V132.57z"/>
</svg>
