<?xml version="1.0" encoding="utf-8"?>
<!-- Generator: Adobe Illustrator 25.0.0, SVG Export Plug-In . SVG Version: 6.00 Build 0)  -->
<svg version="1.1" id="Map" xmlns="http://www.w3.org/2000/svg" xmlns:xlink="http://www.w3.org/1999/xlink" x="0px" y="0px"
	 viewBox="0 0 72 72" style="enable-background:new 0 0 72 72;" xml:space="preserve">
<style type="text/css">
	.st0{fill:#32353F;}
</style>
<g>
	<path class="st0" d="M35.72,4.8c11.26,0,20.43,9.16,20.43,20.43c0,2.91-0.6,5.72-1.78,8.33L54,34.35
		c-0.37,0.74-0.78,1.45-1.23,2.13l-0.03,0.05l-0.03,0.05l-8.2,14.2l-3.78-6.54l6.75-11.7c1.37-2.19,2.09-4.72,2.09-7.31
		c0-7.64-6.21-13.85-13.85-13.85c-7.64,0-13.85,6.21-13.85,13.85c0,2.77,0.81,5.43,2.35,7.72l15.29,26.48L35.72,66l-8.54-14.79
		l-8.44-14.63l-0.03-0.05l-0.03-0.05c-0.45-0.68-0.86-1.39-1.21-2.09l-0.38-0.79c-1.19-2.65-1.79-5.46-1.79-8.37
		C15.29,13.96,24.46,4.8,35.72,4.8 M35.72,2.8c-12.39,0-22.43,10.04-22.43,22.43c0,3.27,0.71,6.38,1.97,9.19l0.39,0.83
		c0.4,0.81,0.85,1.59,1.35,2.34l8.44,14.63L35.72,70l6.1-10.57l-15.9-27.54c-1.29-1.9-2.05-4.19-2.05-6.66
		c0-6.55,5.31-11.85,11.85-11.85c6.55,0,11.85,5.31,11.85,11.85c0,2.31-0.66,4.46-1.8,6.28l-7.35,12.73l6.09,10.54l1.48-2.57
		l8.44-14.63c0.5-0.75,0.94-1.53,1.35-2.34l0.39-0.83c1.26-2.8,1.97-5.91,1.97-9.19C58.15,12.84,48.11,2.8,35.72,2.8L35.72,2.8z"/>
</g>
</svg>
