<?xml version="1.0" encoding="utf-8"?>
<!-- Generator: Adobe Illustrator 25.0.0, SVG Export Plug-In . SVG Version: 6.00 Build 0)  -->
<svg version="1.1" id="Map" xmlns="http://www.w3.org/2000/svg" xmlns:xlink="http://www.w3.org/1999/xlink" x="0px" y="0px"
	 viewBox="0 0 72 72" style="enable-background:new 0 0 72 72;" xml:space="preserve">
<style type="text/css">
	.st0{fill:#32353F;}
</style>
<g>
	<path class="st0" d="M25.92,31.89c-1.29-1.9-2.05-4.19-2.05-6.66c0-6.55,5.31-11.85,11.85-11.85c6.55,0,11.85,5.31,11.85,11.85
		c0,2.31-0.66,4.46-1.8,6.28l-7.35,12.73l6.09,10.54l1.48-2.57l8.44-14.63c0.5-0.75,0.94-1.53,1.35-2.34l0.39-0.83
		c1.26-2.8,1.97-5.91,1.97-9.19c0-12.39-10.04-22.43-22.43-22.43c-12.39,0-22.43,10.04-22.43,22.43c0,3.27,0.71,6.38,1.97,9.19
		l0.39,0.83c0.4,0.81,0.85,1.59,1.35,2.34l8.44,14.63L35.72,70l6.1-10.57L25.92,31.89z"/>
</g>
</svg>
