<?xml version="1.0" encoding="utf-8"?>
<!-- Generator: Adobe Illustrator 25.0.0, SVG Export Plug-In . SVG Version: 6.00 Build 0)  -->
<svg version="1.1" id="Layer_1" xmlns="http://www.w3.org/2000/svg" xmlns:xlink="http://www.w3.org/1999/xlink" x="0px" y="0px"
	 viewBox="0 0 288 288" style="enable-background:new 0 0 288 288;" xml:space="preserve">
<style type="text/css">
	.st0{fill:#FFFFFF;}
	.st1{fill:#32353F;}
</style>
<path class="st0" d="M79.25,269.75c-3.46,0-6.43-1.99-7.82-4.92h-0.84l-0.02-3.6c0-36.88,39.12-66.88,87.21-66.88
	s87.21,30,87.21,66.88v3.6h-0.86c-1.39,2.93-4.37,4.92-7.82,4.92H79.25z"/>
<path class="st1" d="M155.76,110.94c-6.66-1.31-13.63-2.01-20.82-2.01c-45.82,0-83.1,28.43-83.1,63.38l0.02,2h0.34
	c0.9,2.79,3.5,4.77,6.58,4.77H74c0.01,0,0.01,0,0.02,0h157.05c2.74,0,4.98-2.2,5.07-4.92h0.02
	C236.15,140.03,200.44,112.22,155.76,110.94z M55.86,172.24l-0.01-0.32c0.27-31.58,33.56-57.39,75.2-58.91
	c-35.76,7.18-62.12,31.84-62.12,61.16h0.02c0.01,0.31,0.06,0.62,0.12,0.92h-10.3C57.22,175.07,55.91,173.8,55.86,172.24z"/>
</svg>
