<?xml version="1.0" encoding="utf-8"?>
<!-- Generator: Adobe Illustrator 25.0.0, SVG Export Plug-In . SVG Version: 6.00 Build 0)  -->
<svg version="1.1" id="Layer_1" xmlns="http://www.w3.org/2000/svg" xmlns:xlink="http://www.w3.org/1999/xlink" x="0px" y="0px"
	 viewBox="0 0 288 288" style="enable-background:new 0 0 288 288;" xml:space="preserve">
<style type="text/css">
	.st0{fill:#32353F;}
</style>
<path class="st0" d="M67.44,185.69h165.25v0c0,7.48-6.12,13.61-13.61,13.61H81.05C73.57,199.3,67.44,193.17,67.44,185.69
	L67.44,185.69z M217.22,145.47L217.22,145.47c0,0-53.7-28.29-53.7-60.48l0-9.86l3.44,0c3.49,0,6.34-2.85,6.34-6.34
	c0-3.49-2.85-6.34-6.34-6.34l-32.76,0c-3.49,0-6.34,2.85-6.34,6.34c0,3.49,2.85,6.34,6.34,6.34l3.44,0l0,9.86
	c0,32.19-53.7,60.48-53.7,60.48h0c-13.07,6.35-22.14,19.77-22.14,35.21v0l177.56,0v0C239.36,165.24,230.29,151.82,217.22,145.47z"/>
</svg>
