<?xml version="1.0" encoding="utf-8"?>
<!-- Generator: Adobe Illustrator 25.0.0, SVG Export Plug-In . SVG Version: 6.00 Build 0)  -->
<svg version="1.1" id="Layer_1" xmlns="http://www.w3.org/2000/svg" xmlns:xlink="http://www.w3.org/1999/xlink" x="0px" y="0px"
	 viewBox="0 0 288 288" style="enable-background:new 0 0 288 288;" xml:space="preserve">
<style type="text/css">
	.st0{fill:#32353F;}
</style>
<g>
	<path class="st0" d="M186.4,99.85l4.4-11.49c-23.78-14.65-74.55-14.96-93.59,0l4.54,11.87C126.29,86.43,163.14,88.96,186.4,99.85z"
		/>
	<path class="st0" d="M103.26,104.19L144,210.75l40.89-106.95C162.47,93.16,126.68,90.64,103.26,104.19z M120.49,120.45
		c0-5.92,4.8-10.72,10.72-10.72c5.92,0,10.72,4.8,10.72,10.72s-4.8,10.72-10.72,10.72C125.29,131.17,120.49,126.37,120.49,120.45z
		 M148.72,159.18c-5.92,0-10.72-4.8-10.72-10.72s4.8-10.72,10.72-10.72c5.92,0,10.72,4.8,10.72,10.72S154.64,159.18,148.72,159.18z"
		/>
</g>
</svg>
