<?xml version="1.0" encoding="utf-8"?>
<!-- Generator: Adobe Illustrator 25.0.0, SVG Export Plug-In . SVG Version: 6.00 Build 0)  -->
<svg version="1.1" id="Layer_1" xmlns="http://www.w3.org/2000/svg" xmlns:xlink="http://www.w3.org/1999/xlink" x="0px" y="0px"
	 viewBox="0 0 72 72" style="enable-background:new 0 0 72 72;" xml:space="preserve">
<style type="text/css">
	.st0{fill:#32353F;}
</style>
<g>
	<path class="st0" d="M35.39,9.45c6.82,0,12.37,5.55,12.37,12.37s-5.55,12.37-12.37,12.37s-12.37-5.55-12.37-12.37
		S28.57,9.45,35.39,9.45 M35.39,7.45c-7.94,0-14.37,6.43-14.37,14.37s6.43,14.37,14.37,14.37s14.37-6.43,14.37-14.37
		S43.33,7.45,35.39,7.45L35.39,7.45z"/>
</g>
<g>
	<path class="st0" d="M39.71,40.35c9.49,0,17.21,9.22,17.21,20.56v3.54H13.86v-3.54c0-11.34,7.72-20.56,17.21-20.56H39.71
		 M39.71,38.35h-8.64c-10.57,0-19.21,10.15-19.21,22.56v4.89c0,0.22,0.02,0.43,0.03,0.65H58.9c0.01-0.22,0.03-0.43,0.03-0.65v-4.89
		C58.93,48.5,50.28,38.35,39.71,38.35L39.71,38.35z"/>
</g>
</svg>
