<?xml version="1.0" encoding="utf-8"?>
<!-- Generator: Adobe Illustrator 25.0.0, SVG Export Plug-In . SVG Version: 6.00 Build 0)  -->
<svg version="1.1" id="Layer_1" xmlns="http://www.w3.org/2000/svg" xmlns:xlink="http://www.w3.org/1999/xlink" x="0px" y="0px"
	 viewBox="0 0 288 288" style="enable-background:new 0 0 288 288;" xml:space="preserve">
<style type="text/css">
	.st0{fill:#32353F;}
</style>
<path class="st0" d="M178.99,131.15c-9.73-10.76-30.42-18.18-54.38-18.18c-29.6,0-54.21,11.33-59.33,26.27
	C70.4,154.17,95,165.5,124.6,165.5c23.97,0,44.65-7.43,54.38-18.18c5.23,6.68,16.74,11.33,30.1,11.33v-38.82
	C195.73,119.82,184.22,124.46,178.99,131.15z M85.67,138.25c-2.35,0-4.26-1.91-4.26-4.26s1.91-4.26,4.26-4.26s4.26,1.91,4.26,4.26
	S88.03,138.25,85.67,138.25z"/>
</svg>
