<?xml version="1.0" encoding="utf-8"?>
<!-- Generator: Adobe Illustrator 25.0.0, SVG Export Plug-In . SVG Version: 6.00 Build 0)  -->
<svg version="1.1" id="Layer_1" xmlns="http://www.w3.org/2000/svg" xmlns:xlink="http://www.w3.org/1999/xlink" x="0px" y="0px"
	 viewBox="0 0 288 288" style="enable-background:new 0 0 288 288;" xml:space="preserve">
<style type="text/css">
	.st0{fill:#FFFFFF;}
	.st1{fill:#32353F;}
</style>
<g>
	<ellipse class="st0" cx="131.64" cy="121.2" rx="35.9" ry="13.28"/>
	<path class="st1" d="M131.64,136.48c-18.37,0-37.9-5.35-37.9-15.28s19.53-15.28,37.9-15.28s37.9,5.35,37.9,15.28
		S150.01,136.48,131.64,136.48z M131.64,109.92c-19.98,0-33.9,5.94-33.9,11.28c0,5.33,13.92,11.28,33.9,11.28
		c19.98,0,33.9-5.94,33.9-11.28C165.54,115.86,151.62,109.92,131.64,109.92z"/>
</g>
<g>
	<line x1="95.74" y1="121.2" x2="95.74" y2="165.62"/>
	<rect x="93.74" y="121.2" class="st1" width="4" height="44.43"/>
</g>
<g>
	<line x1="167.54" y1="121.2" x2="167.54" y2="165.62"/>
	<rect x="165.54" y="121.2" class="st1" width="4" height="44.43"/>
</g>
<path class="st1" d="M167.72,160.67c0.28-0.57,0.44-1.24,0.44-2.02c0-4.39-1.17-8.51-0.93-12.94c0.23-4.25,0.32-8.61,1.06-12.8
	c0.92-5.19-5.12-7.54-8.22-3.47c0.19-0.25-3.78,0.62-4.47,0.93c-1.97,0.87-3.67,2.18-5.69,2.91c-4.97,1.81-11.19,1.67-16.43,1.78
	c-4.97,0.11-10.55,0.44-15.3-1.19c-4.25-1.45-7.68-3.79-12.36-3.62c-0.42,0.02-0.82,0.1-1.2,0.21c-0.47-1.41-1.6-2.28-2.91-2.61
	c-0.04-0.03-0.07-0.05-0.11-0.08c-3.49-2.41-7.32,1.56-6.61,5.08c1.47,7.31,1.58,14.67,0.28,22.02c-0.31,1.77,0.33,3.44,1.46,4.5
	c-1.9,1.82-2.99,3.9-2.99,6.24c0,9.92,19.53,15.28,37.9,15.28s37.9-5.35,37.9-15.28C169.54,163.82,168.89,162.17,167.72,160.67z"/>
<ellipse class="st1" cx="131.64" cy="115.54" rx="10.24" ry="3.79"/>
<ellipse class="st1" cx="144.88" cy="123.95" rx="10.24" ry="3.79"/>
<ellipse class="st1" cx="118.4" cy="123.95" rx="10.24" ry="3.79"/>
<g>
	<g>
		<path class="st0" d="M195.39,194.67h-52.99c-9.79,0-17.76-7.97-17.76-17.76v-2.73c0-9.79,7.97-17.76,17.76-17.76h52.99
			c9.79,0,17.76,7.97,17.76,17.76v2.73C213.16,186.71,205.19,194.67,195.39,194.67z M142.41,166.42c-4.28,0-7.76,3.48-7.76,7.76
			v2.73c0,4.28,3.48,7.76,7.76,7.76h52.99c4.28,0,7.76-3.48,7.76-7.76v-2.73c0-4.28-3.48-7.76-7.76-7.76H142.41z"/>
		<g>
			<path class="st1" d="M213.48,165.8c-16.34-11.57-49.46-18.47-61.18-17.69c-20.35,1.35-27.16,12.49-28.69,18.88
				c-4.36,18.2,10.97,13.01,14.83,3.91c0,0,7.18,3.62,9.51-1.85c0,0,7.49,4.23,10.21-1.89c0,0,7.82,4.42,10.04-1.39
				c0,0,6.76,3.77,10.51-1.51c0,0,5.66,4.79,9.75,1.51c0,0,8.34,3.69,11.32-0.57c6.64,4.77,12.51,3.85,12.51,3.85l6.47,14.45v-10.04
				l15.83-4.4L213.48,165.8z"/>
			<path class="st0" d="M223.75,206.91l-14.72-32.88c-2.35-0.23-5.51-0.93-8.98-2.78c-3.35,1.52-7.53,1.17-11.19,0.01
				c-3.33,1.3-6.81,0.55-9.6-0.77c-3.03,1.82-6.46,1.84-9.32,1.2c-0.78,0.63-1.66,1.12-2.64,1.47c-2.61,0.94-5.35,0.62-7.53,0.01
				c-0.93,0.77-2,1.37-3.19,1.76c-2.5,0.83-5.02,0.59-7.04,0.07c-0.77,0.6-1.64,1.09-2.59,1.43c-2.17,0.79-4.4,0.74-6.27,0.4
				c-3.93,5.11-10.54,8.69-16.14,6.85c-2.81-0.92-8.99-4.52-5.8-17.87c2.41-10.07,12.4-21.33,33.23-22.71
				c11.76-0.79,45.13,5.59,63.41,17.92l42.91,6.62l-34.53,9.61V206.91z M154.36,153.04c-0.63,0-1.2,0.02-1.73,0.05
				c-19.88,1.32-23.62,12.78-24.16,15.06c-0.86,3.6-0.65,5.35-0.48,6.02c1.41-0.22,4.55-2.18,5.84-5.22l2.09-4.92l4.77,2.41
				c0.82,0.4,2.07,0.69,2.66,0.64l2.19-5.13l4.87,2.75c1.05,0.57,2.56,0.89,3.02,0.75c0-0.02,0.07-0.11,0.16-0.32l2.24-5.03
				l4.79,2.71c0.91,0.5,2.26,0.92,3,0.96l1.98-5.18l5.04,2.81c0.07,0.04,2.91,1.51,4-0.03l3.15-4.44l4.16,3.51
				c1.13,0.93,2.88,1.64,3.34,1.46l2.37-1.9l2.83,1.19c1.76,0.76,4.24,1.23,5.21,1.01C180.94,156.43,163.1,153.04,154.36,153.04z
				 M143.28,167.23L143.28,167.23L143.28,167.23z"/>
		</g>
	</g>
	<g>
		<g>
			<path class="st0" d="M195.39,189.67h-52.99c-7.02,0-12.76-5.74-12.76-12.76v-2.73c0-7.02,5.74-12.76,12.76-12.76h52.99
				c7.02,0,12.76,5.74,12.76,12.76v2.73C208.16,183.93,202.41,189.67,195.39,189.67z"/>
			<path class="st1" d="M195.39,191.67h-52.99c-8.14,0-14.76-6.62-14.76-14.76v-2.73c0-8.14,6.62-14.76,14.76-14.76h52.99
				c8.14,0,14.76,6.62,14.76,14.76v2.73C210.16,185.05,203.54,191.67,195.39,191.67z M142.41,163.42c-5.93,0-10.76,4.83-10.76,10.76
				v2.73c0,5.93,4.83,10.76,10.76,10.76h52.99c5.93,0,10.76-4.83,10.76-10.76v-2.73c0-5.93-4.83-10.76-10.76-10.76H142.41z"/>
		</g>
		<g>
			<path class="st1" d="M213.48,165.8c-16.34-11.57-49.46-18.47-61.18-17.69c-20.35,1.35-27.16,12.49-28.69,18.88
				c-4.36,18.2,10.97,13.01,14.83,3.91c0,0,7.18,3.62,9.51-1.85c0,0,7.49,4.23,10.21-1.89c0,0,7.82,4.42,10.04-1.39
				c0,0,6.76,3.77,10.51-1.51c0,0,5.66,4.79,9.75,1.51c0,0,8.34,3.69,11.32-0.57c6.64,4.77,12.51,3.85,12.51,3.85l6.47,14.45v-10.04
				l15.83-4.4L213.48,165.8z"/>
			<path class="st1" d="M220.75,192.86l-9.73-21.74c-2.17,0-6.35-0.46-10.98-3.34c-3.48,2.62-9.02,1.06-11.33,0.23
				c-3.3,1.86-7.12,0.56-9.71-1.07c-3.06,2.77-7.13,2.39-9.95,1.39c-0.72,0.93-1.65,1.62-2.76,2.02c-2.57,0.92-5.5,0.12-7.34-0.62
				c-0.87,1.12-1.99,1.92-3.3,2.36c-2.52,0.83-5.19,0.17-6.91-0.48c-0.75,0.92-1.7,1.61-2.82,2.02c-2.31,0.85-4.85,0.35-6.52-0.19
				c-3.15,5.37-9.46,8.88-13.92,7.41c-2.51-0.83-6.34-3.79-3.82-14.32c2.16-9.03,11.31-19.14,30.51-20.41
				c11.79-0.78,45.11,6.02,62.08,17.78l29.82,4.6l-23.31,6.49V192.86z M154.22,150.05c-0.65,0-1.25,0.02-1.79,0.05
				c-21.98,1.46-26.25,14.71-26.88,17.36c-1.28,5.34-0.84,8.93,1.18,9.59c2.65,0.87,7.91-2.33,9.86-6.93l0.83-1.97l1.91,0.96
				c0.85,0.42,3.47,1.39,5.22,0.75c0.71-0.26,1.2-0.77,1.55-1.6l0.88-2.06l1.95,1.1c0.87,0.49,3.56,1.61,5.46,0.98
				c0.85-0.28,1.48-0.92,1.94-1.94l0.89-2.01l1.92,1.08c0.92,0.51,3.96,1.83,5.79,1.17c0.41-0.15,0.99-0.46,1.4-1.53l0.82-2.16
				l2.02,1.12c0.21,0.11,5.25,2.82,7.9-0.92l1.26-1.78l1.66,1.41c0.04,0.03,4.46,3.68,7.2,1.47l0.95-0.76l1.11,0.49
				c1.77,0.78,7.22,2.47,8.87,0.11l1.16-1.66l1.64,1.18c5.33,3.83,9.98,3.61,10.9,3.52C196.57,156.59,166.59,150.05,154.22,150.05z
				 M213.95,167.9l0.16,0.34l2.64,5.9v-2.2l8.35-2.32L213.95,167.9z"/>
		</g>
	</g>
</g>
</svg>
