<?xml version="1.0" encoding="utf-8"?>
<!-- Generator: Adobe Illustrator 25.0.0, SVG Export Plug-In . SVG Version: 6.00 Build 0)  -->
<svg version="1.1" id="Layer_1" xmlns="http://www.w3.org/2000/svg" xmlns:xlink="http://www.w3.org/1999/xlink" x="0px" y="0px"
	 viewBox="0 0 288 288" style="enable-background:new 0 0 288 288;" xml:space="preserve">
<style type="text/css">
	.st0{fill:#32353F;}
</style>
<path class="st0" d="M195.02,112.19c2.12-2.27,4.3-4.86,5.74-7.3c3.3-5.57,3.95-9.97,1.55-15.77c-1.75-4.23-8.08-5.84-11.62-5.42
	c-3.54,0.41-11.36,4.91-8.48,7.79s5.46-0.93,7.73-1.34s5.05,0.52,6.08,4.23c0.75,2.69-1.88,7.23-6.28,12.11
	c-2.75-4.57-5.62-5.31-10.34-6.36c-26.45-5.89-43.32,38.61-51.32,41.9c-8,3.3-32.02,8-48.97,39.08
	c58.85,0,102.17-26.86,114.88-40.61C202.28,131.56,207.67,119.2,195.02,112.19z"/>
</svg>
