<?xml version="1.0" encoding="utf-8"?>
<!-- Generator: Adobe Illustrator 25.0.0, SVG Export Plug-In . SVG Version: 6.00 Build 0)  -->
<svg version="1.1" id="Layer_1" xmlns="http://www.w3.org/2000/svg" xmlns:xlink="http://www.w3.org/1999/xlink" x="0px" y="0px"
	 viewBox="0 0 288 288" style="enable-background:new 0 0 288 288;" xml:space="preserve">
<style type="text/css">
	.st0{fill:#32353F;}
</style>
<path class="st0" d="M215.8,140.46h-74.85v-26.74h73.63v-4h-73.63v-9.74l73.52-8.71L214,87.31l-99.63,11.8l0.47,3.97l4.73-0.56v7.21
	h-5.32v4h5.32v26.74H71.87c0,23.29,17.51,43.31,42.62,52.24v8.58h58.69v-8.58C198.29,183.77,215.8,163.75,215.8,140.46z
	 M136.95,140.46h-4.69v-26.74h4.69V140.46z M136.95,109.72h-4.69v-8.71l4.69-0.56V109.72z M123.58,102.04l4.69-0.56v8.23h-4.69
	V102.04z M123.58,113.72h4.69v26.74h-4.69V113.72z"/>
</svg>
